<?xml version="1.0" encoding="UTF-8" standalone="no"?>
<!DOCTYPE svg PUBLIC "-//W3C//DTD SVG 1.1//EN"
 "http://www.w3.org/Graphics/SVG/1.1/DTD/svg11.dtd">
<!-- Generated by graphviz version 2.36.0 (20140111.2315)
 -->
<!-- Title: models_diagram Pages: 1 -->
<svg width="541pt" height="298pt"
 viewBox="0.00 0.00 541.00 298.00" xmlns="http://www.w3.org/2000/svg" xmlns:xlink="http://www.w3.org/1999/xlink">
<g id="graph0" class="graph" transform="scale(1 1) rotate(0) translate(4 294)">
<title>models_diagram</title>
<polygon fill="white" stroke="none" points="-4,4 -4,-294 537,-294 537,4 -4,4"/>
<!-- _diagram_info -->
<g id="node1" class="node"><title>_diagram_info</title>
<text text-anchor="start" x="7.31226" y="-275.1" font-family="Times,serif" font-size="13.00">Models diagram</text>
<text text-anchor="start" x="7.31226" y="-262.1" font-family="Times,serif" font-size="13.00">Date: Apr 23 2014 &#45; 17:01</text>
<text text-anchor="start" x="7.31226" y="-249.1" font-family="Times,serif" font-size="13.00">Migration version: 20140423195337</text>
<text text-anchor="start" x="7.31226" y="-236.1" font-family="Times,serif" font-size="13.00">Generated by RailRoady 1.1.1</text>
<text text-anchor="start" x="7.31226" y="-223.1" font-family="Times,serif" font-size="13.00">http://railroady.prestonlee.com</text>
</g>
<!-- Campaign -->
<g id="node2" class="node"><title>Campaign</title>
<ellipse fill="none" stroke="black" cx="306" cy="-90" rx="46.1851" ry="18"/>
<text text-anchor="middle" x="306" y="-85.8" font-family="Times,serif" font-size="14.00">Campaign</text>
</g>
<!-- Comment -->
<g id="node3" class="node"><title>Comment</title>
<ellipse fill="none" stroke="black" cx="90" cy="-18" rx="44.4828" ry="18"/>
<text text-anchor="middle" x="90" y="-13.8" font-family="Times,serif" font-size="14.00">Comment</text>
</g>
<!-- Campaign&#45;&gt;Comment -->
<g id="edge2" class="edge"><title>Campaign&#45;&gt;Comment</title>
<path fill="none" stroke="#347918" d="M263.632,-75.2698C225.989,-63.0705 171.209,-45.3178 133.289,-33.029"/>
<ellipse fill="none" stroke="#347918" cx="267.491" cy="-76.5201" rx="4.00001" ry="4.00001"/>
<polygon fill="#347918" stroke="#347918" points="133.065,-32.9562 124.939,-25.5925 128.308,-31.4148 123.552,-29.8733 123.552,-29.8733 123.552,-29.8733 128.308,-31.4148 122.165,-34.1541 133.065,-32.9562 133.065,-32.9562"/>
</g>
<!-- Contribution -->
<g id="node4" class="node"><title>Contribution</title>
<ellipse fill="none" stroke="black" cx="208" cy="-18" rx="54.9642" ry="18"/>
<text text-anchor="middle" x="208" y="-13.8" font-family="Times,serif" font-size="14.00">Contribution</text>
</g>
<!-- Campaign&#45;&gt;Contribution -->
<g id="edge4" class="edge"><title>Campaign&#45;&gt;Contribution</title>
<path fill="none" stroke="#531f56" d="M277.984,-68.9886C265.578,-60.1275 250.96,-49.686 238.301,-40.6438"/>
<ellipse fill="none" stroke="#531f56" cx="281.481" cy="-71.4861" rx="4.00002" ry="4.00002"/>
<polygon fill="#531f56" stroke="#531f56" points="238.039,-40.4564 232.517,-30.9822 233.97,-37.5502 229.902,-34.644 229.902,-34.644 229.902,-34.644 233.97,-37.5502 227.286,-38.3058 238.039,-40.4564 238.039,-40.4564"/>
</g>
<!-- Milestone -->
<g id="node5" class="node"><title>Milestone</title>
<ellipse fill="none" stroke="black" cx="327" cy="-18" rx="45.2147" ry="18"/>
<text text-anchor="middle" x="327" y="-13.8" font-family="Times,serif" font-size="14.00">Milestone</text>
</g>
<!-- Campaign&#45;&gt;Milestone -->
<g id="edge5" class="edge"><title>Campaign&#45;&gt;Milestone</title>
<path fill="none" stroke="#e249ca" d="M313.42,-64.2675C315.198,-58.34 317.106,-51.9814 318.912,-45.9587"/>
<ellipse fill="none" stroke="#e249ca" cx="312.233" cy="-68.2236" rx="4.00001" ry="4.00001"/>
<polygon fill="#e249ca" stroke="#e249ca" points="318.944,-45.8536 326.128,-37.5684 320.381,-41.0644 321.817,-36.2753 321.817,-36.2753 321.817,-36.2753 320.381,-41.0644 317.507,-34.9822 318.944,-45.8536 318.944,-45.8536"/>
</g>
<!-- Perk -->
<g id="node7" class="node"><title>Perk</title>
<ellipse fill="none" stroke="black" cx="417" cy="-18" rx="27" ry="18"/>
<text text-anchor="middle" x="417" y="-13.8" font-family="Times,serif" font-size="14.00">Perk</text>
</g>
<!-- Campaign&#45;&gt;Perk -->
<g id="edge1" class="edge"><title>Campaign&#45;&gt;Perk</title>
<path fill="none" stroke="#aa8054" d="M336.237,-69.9318C352.806,-59.4825 373.195,-46.6247 389.341,-36.4425"/>
<ellipse fill="none" stroke="#aa8054" cx="332.653" cy="-72.192" rx="4.00002" ry="4.00002"/>
<polygon fill="#aa8054" stroke="#aa8054" points="389.365,-36.4274 400.224,-34.8995 393.594,-33.7603 397.824,-31.0932 397.824,-31.0932 397.824,-31.0932 393.594,-33.7603 395.423,-27.2869 389.365,-36.4274 389.365,-36.4274"/>
</g>
<!-- Update -->
<g id="node8" class="node"><title>Update</title>
<ellipse fill="none" stroke="black" cx="498" cy="-18" rx="35.4654" ry="18"/>
<text text-anchor="middle" x="498" y="-13.8" font-family="Times,serif" font-size="14.00">Update</text>
</g>
<!-- Campaign&#45;&gt;Update -->
<g id="edge3" class="edge"><title>Campaign&#45;&gt;Update</title>
<path fill="none" stroke="#a7ba22" d="M346.674,-74.5219C376.219,-63.96 417.138,-49.2378 453,-36 455.556,-35.0565 458.191,-34.0773 460.845,-33.087"/>
<ellipse fill="none" stroke="#a7ba22" cx="342.805" cy="-75.9041" rx="4.00001" ry="4.00001"/>
<polygon fill="#a7ba22" stroke="#a7ba22" points="461.056,-33.0077 471.999,-33.7084 465.737,-31.2514 470.419,-29.4951 470.419,-29.4951 470.419,-29.4951 465.737,-31.2514 468.838,-25.2818 461.056,-33.0077 461.056,-33.0077"/>
</g>
<!-- Organization -->
<g id="node6" class="node"><title>Organization</title>
<ellipse fill="none" stroke="black" cx="306" cy="-162" rx="56.1744" ry="18"/>
<text text-anchor="middle" x="306" y="-157.8" font-family="Times,serif" font-size="14.00">Organization</text>
</g>
<!-- Organization&#45;&gt;Campaign -->
<g id="edge10" class="edge"><title>Organization&#45;&gt;Campaign</title>
<path fill="none" stroke="#bad578" d="M306,-135.64C306,-130.063 306,-124.132 306,-118.476"/>
<ellipse fill="none" stroke="#bad578" cx="306" cy="-139.697" rx="4" ry="4"/>
<polygon fill="#bad578" stroke="#bad578" points="306,-118.104 310.5,-108.104 306,-113.104 306,-108.104 306,-108.104 306,-108.104 306,-113.104 301.5,-108.104 306,-118.104 306,-118.104"/>
</g>
<!-- ActiveRecord::Base -->
<g id="node9" class="node"><title>ActiveRecord::Base</title>
<ellipse fill="none" stroke="black" cx="306" cy="-253" rx="80.9821" ry="18"/>
<text text-anchor="middle" x="306" y="-248.8" font-family="Times,serif" font-size="14.00">ActiveRecord::Base</text>
</g>
<!-- ActiveRecord::Base&#45;&gt;Campaign -->
<g id="edge6" class="edge"><title>ActiveRecord::Base&#45;&gt;Campaign</title>
<path fill="none" stroke="black" d="M284.24,-235.437C268.913,-222.308 249.645,-202.476 241,-180 235.256,-165.066 234.136,-158.453 241,-144 248.995,-127.165 265.245,-113.915 279.496,-104.873"/>
</g>
<!-- ActiveRecord::Base&#45;&gt;Comment -->
<g id="edge7" class="edge"><title>ActiveRecord::Base&#45;&gt;Comment</title>
<path fill="none" stroke="black" d="M282.582,-235.609C263.654,-221.827 236.828,-201.052 216,-180 168.32,-131.808 121.649,-65.9057 101.023,-35.5468"/>
</g>
<!-- ActiveRecord::Base&#45;&gt;Contribution -->
<g id="edge8" class="edge"><title>ActiveRecord::Base&#45;&gt;Contribution</title>
<path fill="none" stroke="black" d="M282.667,-235.543C266.019,-222.469 244.6,-202.658 233,-180 208.508,-132.161 206.6,-66.6474 207.245,-36.0467"/>
</g>
<!-- ActiveRecord::Base&#45;&gt;Milestone -->
<g id="edge9" class="edge"><title>ActiveRecord::Base&#45;&gt;Milestone</title>
<path fill="none" stroke="black" d="M327.76,-235.437C343.087,-222.308 362.355,-202.476 371,-180 379.619,-157.589 362.87,-77.0568 361,-72 356.147,-58.8757 347.647,-45.6257 340.36,-35.6567"/>
</g>
<!-- ActiveRecord::Base&#45;&gt;Organization -->
<g id="edge11" class="edge"><title>ActiveRecord::Base&#45;&gt;Organization</title>
<path fill="none" stroke="black" d="M306,-234.84C306,-219.08 306,-195.851 306,-180.107"/>
</g>
<!-- ActiveRecord::Base&#45;&gt;Perk -->
<g id="edge12" class="edge"><title>ActiveRecord::Base&#45;&gt;Perk</title>
<path fill="none" stroke="black" d="M331.701,-235.627C349.765,-222.73 372.952,-203.104 386,-180 412.595,-132.908 416.789,-67.0325 417.184,-36.1956"/>
</g>
<!-- ActiveRecord::Base&#45;&gt;Update -->
<g id="edge13" class="edge"><title>ActiveRecord::Base&#45;&gt;Update</title>
<path fill="none" stroke="black" d="M335.167,-235.948C356.889,-222.946 386.253,-203.046 407,-180 448.031,-134.424 478.492,-67.2343 491.315,-36.0528"/>
</g>
</g>
</svg>
