<?xml version="1.0" encoding="UTF-8" standalone="no"?>
<!DOCTYPE svg PUBLIC "-//W3C//DTD SVG 1.1//EN"
 "http://www.w3.org/Graphics/SVG/1.1/DTD/svg11.dtd">
<!-- Generated by graphviz version 2.36.0 (20140111.2315)
 -->
<!-- Title: models_diagram Pages: 1 -->
<svg width="790pt" height="664pt"
 viewBox="0.00 0.00 790.00 664.00" xmlns="http://www.w3.org/2000/svg" xmlns:xlink="http://www.w3.org/1999/xlink">
<g id="graph0" class="graph" transform="scale(1 1) rotate(0) translate(4 660)">
<title>models_diagram</title>
<polygon fill="white" stroke="none" points="-4,4 -4,-660 786,-660 786,4 -4,4"/>
<!-- _diagram_info -->
<g id="node1" class="node"><title>_diagram_info</title>
<text text-anchor="start" x="102.312" y="-641.1" font-family="Times,serif" font-size="13.00">Models diagram</text>
<text text-anchor="start" x="102.312" y="-628.1" font-family="Times,serif" font-size="13.00">Date: Apr 23 2014 &#45; 17:01</text>
<text text-anchor="start" x="102.312" y="-615.1" font-family="Times,serif" font-size="13.00">Migration version: 20140423195337</text>
<text text-anchor="start" x="102.312" y="-602.1" font-family="Times,serif" font-size="13.00">Generated by RailRoady 1.1.1</text>
<text text-anchor="start" x="102.312" y="-589.1" font-family="Times,serif" font-size="13.00">http://railroady.prestonlee.com</text>
</g>
<!-- Campaign -->
<g id="node2" class="node"><title>Campaign</title>
<path fill="none" stroke="black" d="M330.062,-195C330.062,-195 455.938,-195 455.938,-195 461.938,-195 467.938,-201 467.938,-207 467.938,-207 467.938,-381 467.938,-381 467.938,-387 461.938,-393 455.938,-393 455.938,-393 330.062,-393 330.062,-393 324.062,-393 318.062,-387 318.062,-381 318.062,-381 318.062,-207 318.062,-207 318.062,-201 324.062,-195 330.062,-195"/>
<text text-anchor="middle" x="393" y="-377.8" font-family="Times,serif" font-size="14.00">Campaign</text>
<polyline fill="none" stroke="black" points="318.062,-371 467.938,-371 "/>
<text text-anchor="start" x="326.062" y="-355.8" font-family="Times,serif" font-size="14.00">id :integer</text>
<text text-anchor="start" x="326.062" y="-341.8" font-family="Times,serif" font-size="14.00">name :string</text>
<text text-anchor="start" x="326.062" y="-327.8" font-family="Times,serif" font-size="14.00">description :text</text>
<text text-anchor="start" x="326.062" y="-313.8" font-family="Times,serif" font-size="14.00">goal :float</text>
<text text-anchor="start" x="326.062" y="-299.8" font-family="Times,serif" font-size="14.00">deadline :datetime</text>
<text text-anchor="start" x="326.062" y="-285.8" font-family="Times,serif" font-size="14.00">minimum :float</text>
<text text-anchor="start" x="326.062" y="-271.8" font-family="Times,serif" font-size="14.00">category :string</text>
<text text-anchor="start" x="326.062" y="-257.8" font-family="Times,serif" font-size="14.00">locality :string</text>
<text text-anchor="start" x="326.062" y="-243.8" font-family="Times,serif" font-size="14.00">organization_id :integer</text>
<text text-anchor="start" x="326.062" y="-229.8" font-family="Times,serif" font-size="14.00">short_description :text</text>
<text text-anchor="start" x="326.062" y="-215.8" font-family="Times,serif" font-size="14.00">created_at :datetime</text>
<text text-anchor="start" x="326.062" y="-201.8" font-family="Times,serif" font-size="14.00">updated_at :datetime</text>
</g>
<!-- Comment -->
<g id="node3" class="node"><title>Comment</title>
<path fill="none" stroke="black" d="M11.7153,-22C11.7153,-22 122.285,-22 122.285,-22 128.285,-22 134.285,-28 134.285,-34 134.285,-34 134.285,-124 134.285,-124 134.285,-130 128.285,-136 122.285,-136 122.285,-136 11.7153,-136 11.7153,-136 5.71533,-136 -0.284668,-130 -0.284668,-124 -0.284668,-124 -0.284668,-34 -0.284668,-34 -0.284668,-28 5.71533,-22 11.7153,-22"/>
<text text-anchor="middle" x="67" y="-120.8" font-family="Times,serif" font-size="14.00">Comment</text>
<polyline fill="none" stroke="black" points="-0.284668,-114 134.285,-114 "/>
<text text-anchor="start" x="7.71533" y="-98.8" font-family="Times,serif" font-size="14.00">id :integer</text>
<text text-anchor="start" x="7.71533" y="-84.8" font-family="Times,serif" font-size="14.00">user_id :integer</text>
<text text-anchor="start" x="7.71533" y="-70.8" font-family="Times,serif" font-size="14.00">campaign_id :integer</text>
<text text-anchor="start" x="7.71533" y="-56.8" font-family="Times,serif" font-size="14.00">message :text</text>
<text text-anchor="start" x="7.71533" y="-42.8" font-family="Times,serif" font-size="14.00">created_at :datetime</text>
<text text-anchor="start" x="7.71533" y="-28.8" font-family="Times,serif" font-size="14.00">updated_at :datetime</text>
</g>
<!-- Campaign&#45;&gt;Comment -->
<g id="edge2" class="edge"><title>Campaign&#45;&gt;Comment</title>
<path fill="none" stroke="#a44d04" d="M310.597,-255.977C260.25,-231.542 195.805,-196.921 144,-158 137.903,-153.419 131.827,-148.361 125.917,-143.087"/>
<ellipse fill="none" stroke="#a44d04" cx="314.317" cy="-257.771" rx="4.00002" ry="4.00002"/>
<polygon fill="#a44d04" stroke="#a44d04" points="125.898,-143.07 121.57,-132.995 122.213,-139.691 118.528,-136.311 118.528,-136.311 118.528,-136.311 122.213,-139.691 115.487,-139.628 125.898,-143.07 125.898,-143.07"/>
</g>
<!-- Contribution -->
<g id="node4" class="node"><title>Contribution</title>
<path fill="none" stroke="black" d="M164.777,-15C164.777,-15 307.223,-15 307.223,-15 313.223,-15 319.223,-21 319.223,-27 319.223,-27 319.223,-131 319.223,-131 319.223,-137 313.223,-143 307.223,-143 307.223,-143 164.777,-143 164.777,-143 158.777,-143 152.777,-137 152.777,-131 152.777,-131 152.777,-27 152.777,-27 152.777,-21 158.777,-15 164.777,-15"/>
<text text-anchor="middle" x="236" y="-127.8" font-family="Times,serif" font-size="14.00">Contribution</text>
<polyline fill="none" stroke="black" points="152.777,-121 319.223,-121 "/>
<text text-anchor="start" x="160.777" y="-105.8" font-family="Times,serif" font-size="14.00">id :integer</text>
<text text-anchor="start" x="160.777" y="-91.8" font-family="Times,serif" font-size="14.00">campaign_id :integer</text>
<text text-anchor="start" x="160.777" y="-77.8" font-family="Times,serif" font-size="14.00">campaign_perk_id :integer</text>
<text text-anchor="start" x="160.777" y="-63.8" font-family="Times,serif" font-size="14.00">user_id :integer</text>
<text text-anchor="start" x="160.777" y="-49.8" font-family="Times,serif" font-size="14.00">amount :float</text>
<text text-anchor="start" x="160.777" y="-35.8" font-family="Times,serif" font-size="14.00">created_at :datetime</text>
<text text-anchor="start" x="160.777" y="-21.8" font-family="Times,serif" font-size="14.00">updated_at :datetime</text>
</g>
<!-- Campaign&#45;&gt;Contribution -->
<g id="edge4" class="edge"><title>Campaign&#45;&gt;Contribution</title>
<path fill="none" stroke="#3c3efc" d="M315.837,-188.314C306.601,-175.783 297.34,-163.219 288.566,-151.316"/>
<ellipse fill="none" stroke="#3c3efc" cx="318.33" cy="-191.697" rx="4.00002" ry="4.00002"/>
<polygon fill="#3c3efc" stroke="#3c3efc" points="288.509,-151.239 286.198,-140.519 285.543,-147.214 282.576,-143.189 282.576,-143.189 282.576,-143.189 285.543,-147.214 278.954,-145.859 288.509,-151.239 288.509,-151.239"/>
</g>
<!-- Milestone -->
<g id="node5" class="node"><title>Milestone</title>
<path fill="none" stroke="black" d="M348.998,-1C348.998,-1 465.002,-1 465.002,-1 471.002,-1 477.002,-7 477.002,-13 477.002,-13 477.002,-145 477.002,-145 477.002,-151 471.002,-157 465.002,-157 465.002,-157 348.998,-157 348.998,-157 342.998,-157 336.998,-151 336.998,-145 336.998,-145 336.998,-13 336.998,-13 336.998,-7 342.998,-1 348.998,-1"/>
<text text-anchor="middle" x="407" y="-141.8" font-family="Times,serif" font-size="14.00">Milestone</text>
<polyline fill="none" stroke="black" points="336.998,-135 477.002,-135 "/>
<text text-anchor="start" x="344.998" y="-119.8" font-family="Times,serif" font-size="14.00">id :integer</text>
<text text-anchor="start" x="344.998" y="-105.8" font-family="Times,serif" font-size="14.00">name :string</text>
<text text-anchor="start" x="344.998" y="-91.8" font-family="Times,serif" font-size="14.00">description :text</text>
<text text-anchor="start" x="344.998" y="-77.8" font-family="Times,serif" font-size="14.00">done_date :datetime</text>
<text text-anchor="start" x="344.998" y="-63.8" font-family="Times,serif" font-size="14.00">goal_percentage :float</text>
<text text-anchor="start" x="344.998" y="-49.8" font-family="Times,serif" font-size="14.00">campaign_id :integer</text>
<text text-anchor="start" x="344.998" y="-35.8" font-family="Times,serif" font-size="14.00">approved :boolean</text>
<text text-anchor="start" x="344.998" y="-21.8" font-family="Times,serif" font-size="14.00">created_at :datetime</text>
<text text-anchor="start" x="344.998" y="-7.8" font-family="Times,serif" font-size="14.00">updated_at :datetime</text>
</g>
<!-- Campaign&#45;&gt;Milestone -->
<g id="edge5" class="edge"><title>Campaign&#45;&gt;Milestone</title>
<path fill="none" stroke="#113d6f" d="M399.975,-186.887C400.407,-180.311 400.839,-173.732 401.265,-167.252"/>
<ellipse fill="none" stroke="#113d6f" cx="399.709" cy="-190.925" rx="4" ry="4"/>
<polygon fill="#113d6f" stroke="#113d6f" points="401.272,-167.142 406.419,-157.459 401.6,-162.153 401.928,-157.164 401.928,-157.164 401.928,-157.164 401.6,-162.153 397.438,-156.869 401.272,-167.142 401.272,-167.142"/>
</g>
<!-- Perk -->
<g id="node7" class="node"><title>Perk</title>
<path fill="none" stroke="black" d="M506.715,-8C506.715,-8 617.285,-8 617.285,-8 623.285,-8 629.285,-14 629.285,-20 629.285,-20 629.285,-138 629.285,-138 629.285,-144 623.285,-150 617.285,-150 617.285,-150 506.715,-150 506.715,-150 500.715,-150 494.715,-144 494.715,-138 494.715,-138 494.715,-20 494.715,-20 494.715,-14 500.715,-8 506.715,-8"/>
<text text-anchor="middle" x="562" y="-134.8" font-family="Times,serif" font-size="14.00">Perk</text>
<polyline fill="none" stroke="black" points="494.715,-128 629.285,-128 "/>
<text text-anchor="start" x="502.715" y="-112.8" font-family="Times,serif" font-size="14.00">id :integer</text>
<text text-anchor="start" x="502.715" y="-98.8" font-family="Times,serif" font-size="14.00">campaign_id :integer</text>
<text text-anchor="start" x="502.715" y="-84.8" font-family="Times,serif" font-size="14.00">amount :float</text>
<text text-anchor="start" x="502.715" y="-70.8" font-family="Times,serif" font-size="14.00">name :string</text>
<text text-anchor="start" x="502.715" y="-56.8" font-family="Times,serif" font-size="14.00">maximun :integer</text>
<text text-anchor="start" x="502.715" y="-42.8" font-family="Times,serif" font-size="14.00">description :text</text>
<text text-anchor="start" x="502.715" y="-28.8" font-family="Times,serif" font-size="14.00">created_at :datetime</text>
<text text-anchor="start" x="502.715" y="-14.8" font-family="Times,serif" font-size="14.00">updated_at :datetime</text>
</g>
<!-- Campaign&#45;&gt;Perk -->
<g id="edge1" class="edge"><title>Campaign&#45;&gt;Perk</title>
<path fill="none" stroke="#9afbca" d="M473.251,-191.855C482.272,-180.486 491.358,-169.034 500.095,-158.022"/>
<ellipse fill="none" stroke="#9afbca" cx="470.596" cy="-195.201" rx="4.00002" ry="4.00002"/>
<polygon fill="#9afbca" stroke="#9afbca" points="500.175,-157.921 509.916,-152.885 503.283,-154.004 506.391,-150.088 506.391,-150.088 506.391,-150.088 503.283,-154.004 502.865,-147.291 500.175,-157.921 500.175,-157.921"/>
</g>
<!-- Update -->
<g id="node8" class="node"><title>Update</title>
<path fill="none" stroke="black" d="M659.715,-22C659.715,-22 770.285,-22 770.285,-22 776.285,-22 782.285,-28 782.285,-34 782.285,-34 782.285,-124 782.285,-124 782.285,-130 776.285,-136 770.285,-136 770.285,-136 659.715,-136 659.715,-136 653.715,-136 647.715,-130 647.715,-124 647.715,-124 647.715,-34 647.715,-34 647.715,-28 653.715,-22 659.715,-22"/>
<text text-anchor="middle" x="715" y="-120.8" font-family="Times,serif" font-size="14.00">Update</text>
<polyline fill="none" stroke="black" points="647.715,-114 782.285,-114 "/>
<text text-anchor="start" x="655.715" y="-98.8" font-family="Times,serif" font-size="14.00">id :integer</text>
<text text-anchor="start" x="655.715" y="-84.8" font-family="Times,serif" font-size="14.00">user_id :integer</text>
<text text-anchor="start" x="655.715" y="-70.8" font-family="Times,serif" font-size="14.00">campaign_id :integer</text>
<text text-anchor="start" x="655.715" y="-56.8" font-family="Times,serif" font-size="14.00">message :text</text>
<text text-anchor="start" x="655.715" y="-42.8" font-family="Times,serif" font-size="14.00">created_at :datetime</text>
<text text-anchor="start" x="655.715" y="-28.8" font-family="Times,serif" font-size="14.00">updated_at :datetime</text>
</g>
<!-- Campaign&#45;&gt;Update -->
<g id="edge3" class="edge"><title>Campaign&#45;&gt;Update</title>
<path fill="none" stroke="#82f609" d="M475.384,-255.092C524.706,-230.616 587.43,-196.263 638,-158 644.082,-153.398 650.146,-148.326 656.05,-143.043"/>
<ellipse fill="none" stroke="#82f609" cx="471.795" cy="-256.862" rx="4.00002" ry="4.00002"/>
<polygon fill="#82f609" stroke="#82f609" points="656.069,-143.025 666.477,-139.571 659.75,-139.641 663.432,-136.258 663.432,-136.258 663.432,-136.258 659.75,-139.641 660.386,-132.945 656.069,-143.025 656.069,-143.025"/>
</g>
<!-- Organization -->
<g id="node6" class="node"><title>Organization</title>
<path fill="none" stroke="black" d="M346.495,-431C346.495,-431 455.505,-431 455.505,-431 461.505,-431 467.505,-437 467.505,-443 467.505,-443 467.505,-533 467.505,-533 467.505,-539 461.505,-545 455.505,-545 455.505,-545 346.495,-545 346.495,-545 340.495,-545 334.495,-539 334.495,-533 334.495,-533 334.495,-443 334.495,-443 334.495,-437 340.495,-431 346.495,-431"/>
<text text-anchor="middle" x="401" y="-529.8" font-family="Times,serif" font-size="14.00">Organization</text>
<polyline fill="none" stroke="black" points="334.495,-523 467.505,-523 "/>
<text text-anchor="start" x="342.495" y="-507.8" font-family="Times,serif" font-size="14.00">id :integer</text>
<text text-anchor="start" x="342.495" y="-493.8" font-family="Times,serif" font-size="14.00">name :string</text>
<text text-anchor="start" x="342.495" y="-479.8" font-family="Times,serif" font-size="14.00">description :text</text>
<text text-anchor="start" x="342.495" y="-465.8" font-family="Times,serif" font-size="14.00">locality :string</text>
<text text-anchor="start" x="342.495" y="-451.8" font-family="Times,serif" font-size="14.00">created_at :datetime</text>
<text text-anchor="start" x="342.495" y="-437.8" font-family="Times,serif" font-size="14.00">updated_at :datetime</text>
</g>
<!-- Organization&#45;&gt;Campaign -->
<g id="edge10" class="edge"><title>Organization&#45;&gt;Campaign</title>
<path fill="none" stroke="#33d071" d="M398.32,-422.681C398.059,-416.407 397.789,-409.929 397.516,-403.374"/>
<ellipse fill="none" stroke="#33d071" cx="398.498" cy="-426.953" rx="4" ry="4"/>
<polygon fill="#33d071" stroke="#33d071" points="397.501,-403.017 401.581,-392.838 397.293,-398.021 397.084,-393.026 397.084,-393.026 397.084,-393.026 397.293,-398.021 392.588,-393.213 397.501,-403.017 397.501,-403.017"/>
</g>
<!-- ActiveRecord::Base -->
<g id="node9" class="node"><title>ActiveRecord::Base</title>
<ellipse fill="none" stroke="black" cx="401" cy="-619" rx="80.9821" ry="18"/>
<text text-anchor="middle" x="401" y="-614.8" font-family="Times,serif" font-size="14.00">ActiveRecord::Base</text>
</g>
<!-- ActiveRecord::Base&#45;&gt;Campaign -->
<g id="edge6" class="edge"><title>ActiveRecord::Base&#45;&gt;Campaign</title>
<path fill="none" stroke="black" d="M374.899,-601.718C357.153,-588.993 335.126,-569.542 325,-546 304.039,-497.269 316.645,-440.394 336.42,-393.117"/>
</g>
<!-- ActiveRecord::Base&#45;&gt;Comment -->
<g id="edge7" class="edge"><title>ActiveRecord::Base&#45;&gt;Comment</title>
<path fill="none" stroke="black" d="M364.907,-602.7C328.938,-586.872 276.964,-562.238 262,-546 150.565,-425.078 97.7588,-231.306 77.4777,-136.265"/>
</g>
<!-- ActiveRecord::Base&#45;&gt;Contribution -->
<g id="edge8" class="edge"><title>ActiveRecord::Base&#45;&gt;Contribution</title>
<path fill="none" stroke="black" d="M371.434,-602.221C351.069,-589.741 325.21,-570.374 311,-546 236.197,-417.689 229.72,-237.474 232.316,-143.171"/>
</g>
<!-- ActiveRecord::Base&#45;&gt;Milestone -->
<g id="edge9" class="edge"><title>ActiveRecord::Base&#45;&gt;Milestone</title>
<path fill="none" stroke="black" d="M426.766,-601.639C444.283,-588.876 466.021,-569.412 476,-546 537.34,-402.083 518.051,-344.687 476,-194 472.518,-181.521 467.257,-169.047 461.163,-157.172"/>
</g>
<!-- ActiveRecord::Base&#45;&gt;Organization -->
<g id="edge11" class="edge"><title>ActiveRecord::Base&#45;&gt;Organization</title>
<path fill="none" stroke="black" d="M401,-600.87C401,-586.546 401,-565.275 401,-545.116"/>
</g>
<!-- ActiveRecord::Base&#45;&gt;Perk -->
<g id="edge12" class="edge"><title>ActiveRecord::Base&#45;&gt;Perk</title>
<path fill="none" stroke="black" d="M437.644,-602.935C461.506,-591.112 491.063,-572.24 507,-546 581.957,-422.584 579.483,-246.673 570.868,-150.125"/>
</g>
<!-- ActiveRecord::Base&#45;&gt;Update -->
<g id="edge13" class="edge"><title>ActiveRecord::Base&#45;&gt;Update</title>
<path fill="none" stroke="black" d="M447.863,-604.245C478.635,-593.047 517.724,-574.383 543,-546 650.536,-425.246 692.816,-231.396 707.744,-136.301"/>
</g>
</g>
</svg>
